<svg width="22" height="21" viewBox="0 0 22 21" fill="none" xmlns="http://www.w3.org/2000/svg">
<rect width="22" height="21" fill="#1E1E1E"/>
<g id="Login Page" clip-path="url(#clip0_0_1)">
<rect width="1440" height="1148" transform="translate(-692 -1081)" fill="#121111"/>
<g id="Footer">
<rect id="Footer_2" x="-692" y="-58" width="1440" height="125" fill="#1A1A1A"/>
<g id="Logos">
<g id="github-mark-white 1" clip-path="url(#clip1_0_1)">
<path id="Vector" fill-rule="evenodd" clip-rule="evenodd" d="M10.9672 0C4.90263 0 0 4.8125 0 10.7662C0 15.5253 3.14129 19.5538 7.49908 20.9797C8.04392 21.0868 8.24349 20.748 8.24349 20.463C8.24349 20.2134 8.22553 19.3578 8.22553 18.4664C5.17471 19.1082 4.53941 17.183 4.53941 17.183C4.04912 15.9353 3.32267 15.6146 3.32267 15.6146C2.32414 14.9551 3.39541 14.9551 3.39541 14.9551C4.50304 15.0264 5.08425 16.0602 5.08425 16.0602C6.06459 17.6999 7.64433 17.2366 8.27986 16.9514C8.37055 16.2562 8.66127 15.7749 8.96994 15.5076C6.53669 15.258 3.97661 14.3312 3.97661 10.1957C3.97661 9.01928 4.41212 8.05678 5.1022 7.30822C4.99333 7.04091 4.61192 5.93556 5.21131 4.45616C5.21131 4.45616 6.13733 4.17091 8.22531 5.56128C9.11924 5.32561 10.0411 5.20573 10.9672 5.20472C11.8932 5.20472 12.8372 5.32962 13.7089 5.56128C15.7971 4.17091 16.7231 4.45616 16.7231 4.45616C17.3225 5.93556 16.9409 7.04091 16.832 7.30822C17.5403 8.05678 17.9578 9.01928 17.9578 10.1957C17.9578 14.3312 15.3978 15.2401 12.9463 15.5076C13.3459 15.8462 13.6907 16.4878 13.6907 17.5039C13.6907 18.9477 13.6728 20.1064 13.6728 20.4627C13.6728 20.748 13.8726 21.0868 14.4172 20.9799C18.775 19.5536 21.9163 15.5253 21.9163 10.7662C21.9342 4.8125 17.0136 0 10.9672 0Z" fill="white"/>
</g>
</g>
</g>
</g>
<defs>
<clipPath id="clip0_0_1">
<rect width="1440" height="1148" fill="white" transform="translate(-692 -1081)"/>
</clipPath>
<clipPath id="clip1_0_1">
<rect width="22" height="21" fill="white"/>
</clipPath>
</defs>
</svg>
